<?xml version="1.0" encoding="UTF-8"?>
<svg id="Layer_1" data-name="Layer 1" xmlns="http://www.w3.org/2000/svg" version="1.1" viewBox="0 0 643.1 183.3">
  <defs>
    <style>
      .cls-1 {
        fill: #000;
      }

      .cls-1, .cls-2 {
        stroke-width: 0px;
      }

      .cls-2 {
        fill: red;
      }
    </style>
  </defs>
  <g>
    <path class="cls-1" d="M219.7,137.9V45.1h19.4v76.3h18.5v16.5h-37.9Z"/>
    <path class="cls-1" d="M286.3,139c-12.7,0-22.8-10-22.8-19.4v-56.4c0-9.4,10.1-19.4,22.8-19.4s22.8,10,22.8,19.4v56.4c0,9.4-10.1,19.4-22.8,19.4ZM290,62.6c0-1.6-1.7-2.8-3.7-2.8s-3.7,1.2-3.7,2.8v57.8c0,1.6,1.7,2.8,3.7,2.8s3.7-1.2,3.7-2.8v-57.8Z"/>
    <path class="cls-1" d="M350.2,137.9l-1.8-3.2c-2.5,2.2-7.3,4.4-12.3,4.4-12.1,0-20.4-7.8-20.4-18.2v-58.7c0-9.4,10-18.2,22.6-18.2s22.8,8.8,22.8,18.2v19h-19v-18.6c0-1.6-1.7-2.8-3.8-2.8s-3.7,1.2-3.7,2.8v59c0,1.5,1.7,2.8,3.7,2.8s3.8-1.3,3.8-2.8v-15.7h-3.8v-13.5h23.4v45.4h-11.5Z"/>
    <path class="cls-1" d="M391.3,139c-12.7,0-22.8-10-22.8-19.4v-56.4c0-9.4,10.1-19.4,22.8-19.4s22.8,10,22.8,19.4v56.4c0,9.4-10.1,19.4-22.8,19.4ZM395,62.6c0-1.6-1.7-2.8-3.7-2.8s-3.7,1.2-3.7,2.8v57.8c0,1.6,1.7,2.8,3.7,2.8s3.7-1.2,3.7-2.8v-57.8Z"/>
    <path class="cls-2" d="M444.8,102.7h-4.3v35.1h-19.4V45.1h23.7c9.3,0,20.3,5.1,20.3,16.9v23.8c0,11.8-11.1,16.9-20.3,16.9ZM446.5,65.3c0-2.7-1.2-3.7-3.4-3.7h-2.6v24.7h2.6c2.2,0,3.4-1,3.4-3.7v-17.3Z"/>
    <path class="cls-2" d="M492.5,137.9l-1.2-14.5h-8.7l-1.8,14.5h-17.1l12.7-92.8h23l13,92.8h-20ZM487.9,76.4l-3.6,30.5h6l-2.4-30.5Z"/>
    <path class="cls-2" d="M538.1,139c-12.7,0-23.2-8.8-23.2-18.2v-58.7c0-9.4,10.5-18.2,23.2-18.2s22.8,8.8,22.8,18.2v18.4h-19.1v-18c0-1.6-1.7-2.8-3.7-2.8s-3.7,1.2-3.7,2.8v57.8c0,1.6,1.7,2.8,3.7,2.8s3.7-1.2,3.7-2.8v-18h19.1v18.4c0,9.4-10.1,18.2-22.8,18.2Z"/>
    <path class="cls-2" d="M598.8,137.9l-7.8-33.9-3.8,11.8v22h-19.4V45.1h19.4v41.9l10.5-41.9h18.4l-12.3,42.6,14.3,50.2h-19.2Z"/>
  </g>
  <g>
    <polygon class="cls-2" points="0 24.2 0 159.2 36.7 146.7 36.7 36.7 0 24.2"/>
    <polygon class="cls-2" points="183.3 24.2 146.7 36.7 146.7 146.7 183.3 159.2 183.3 24.2"/>
    <polygon class="cls-2" points="24.2 183.3 159.2 183.3 146.7 146.7 36.7 146.7 24.2 183.3"/>
    <polygon class="cls-2" points="159.2 0 24.2 0 36.7 36.7 146.7 36.7 159.2 0"/>
  </g>
  <g>
    <path class="cls-1" d="M625.6,56.6h-1.9v-9.8h-3.5v-1.6h8.9v1.6h-3.5v9.8Z"/>
    <path class="cls-1" d="M636.1,56.6l-3.4-9.5h0c0,1.4.1,2.7.1,4v5.6h-1.8v-11.4h2.7l3.3,9.1h0l3.4-9.1h2.7v11.4h-1.9v-5.6c0-.6,0-1.3,0-2.2,0-.9,0-1.5,0-1.7h0l-3.6,9.5h-1.7Z"/>
  </g>
</svg>