<?xml version="1.0" encoding="UTF-8"?>
<svg id="Layer_1" data-name="Layer 1" xmlns="http://www.w3.org/2000/svg" version="1.1" viewBox="0 0 321.6 91.7">
  <defs>
    <style>
      .cls-1 {
        fill: #000;
      }

      .cls-1, .cls-2 {
        stroke-width: 0px;
      }

      .cls-2 {
        fill: red;
      }
    </style>
  </defs>
  <g>
    <path class="cls-1" d="M109.8,68.9V22.5h9.7v38.2h9.3v8.2h-18.9Z"/>
    <path class="cls-1" d="M143.1,69.5c-6.4,0-11.4-5-11.4-9.7v-28.2c0-4.7,5.1-9.7,11.4-9.7s11.4,5,11.4,9.7v28.2c0,4.7-5.1,9.7-11.4,9.7ZM145,31.3c0-.8-.8-1.4-1.9-1.4s-1.9.6-1.9,1.4v28.9c0,.8.8,1.4,1.9,1.4s1.9-.6,1.9-1.4v-28.9Z"/>
    <path class="cls-1" d="M175.1,68.9l-.9-1.6c-1.3,1.1-3.7,2.2-6.1,2.2-6.1,0-10.2-3.9-10.2-9.1v-29.3c0-4.7,5-9.1,11.3-9.1s11.4,4.4,11.4,9.1v9.5h-9.5v-9.3c0-.8-.8-1.4-1.9-1.4s-1.9.6-1.9,1.4v29.5c0,.8.8,1.4,1.9,1.4s1.9-.6,1.9-1.4v-7.8h-1.9v-6.7h11.7v22.7h-5.8Z"/>
    <path class="cls-1" d="M195.7,69.5c-6.4,0-11.4-5-11.4-9.7v-28.2c0-4.7,5.1-9.7,11.4-9.7s11.4,5,11.4,9.7v28.2c0,4.7-5.1,9.7-11.4,9.7ZM197.5,31.3c0-.8-.8-1.4-1.9-1.4s-1.9.6-1.9,1.4v28.9c0,.8.8,1.4,1.9,1.4s1.9-.6,1.9-1.4v-28.9Z"/>
    <path class="cls-2" d="M222.4,51.4h-2.2v17.6h-9.7V22.5h11.8c4.6,0,10.2,2.6,10.2,8.5v11.9c0,5.9-5.5,8.5-10.2,8.5ZM223.2,32.6c0-1.3-.6-1.9-1.7-1.9h-1.3v12.4h1.3c1.1,0,1.7-.5,1.7-1.9v-8.6Z"/>
    <path class="cls-2" d="M246.3,68.9l-.6-7.2h-4.3l-.9,7.2h-8.5l6.4-46.4h11.5l6.5,46.4h-10ZM243.9,38.2l-1.8,15.3h3l-1.2-15.3Z"/>
    <path class="cls-2" d="M269.1,69.5c-6.4,0-11.6-4.4-11.6-9.1v-29.3c0-4.7,5.2-9.1,11.6-9.1s11.4,4.4,11.4,9.1v9.2h-9.6v-9c0-.8-.8-1.4-1.9-1.4s-1.9.6-1.9,1.4v28.9c0,.8.8,1.4,1.9,1.4s1.9-.6,1.9-1.4v-9h9.6v9.2c0,4.7-5.1,9.1-11.4,9.1Z"/>
    <path class="cls-2" d="M299.4,68.9l-3.9-16.9-1.9,5.9v11h-9.7V22.5h9.7v20.9l5.2-20.9h9.2l-6.1,21.3,7.2,25.1h-9.6Z"/>
  </g>
  <g>
    <polygon class="cls-2" points="0 12.1 0 79.6 18.3 73.3 18.3 18.3 0 12.1"/>
    <polygon class="cls-2" points="91.7 12.1 73.3 18.3 73.3 73.3 91.7 79.6 91.7 12.1"/>
    <polygon class="cls-2" points="12.1 91.7 79.6 91.7 73.3 73.3 18.3 73.3 12.1 91.7"/>
    <polygon class="cls-2" points="79.6 0 12.1 0 18.3 18.3 73.3 18.3 79.6 0"/>
  </g>
  <g>
    <path class="cls-1" d="M312.8,28.3h-1v-4.9h-1.7v-.8h4.5v.8h-1.7v4.9Z"/>
    <path class="cls-1" d="M318,28.3l-1.7-4.8h0c0,.7,0,1.4,0,2v2.8h-.9v-5.7h1.4l1.6,4.5h0l1.7-4.5h1.4v5.7h-.9v-2.8c0-.3,0-.7,0-1.1s0-.7,0-.8h0l-1.8,4.8h-.9Z"/>
  </g>
  <g>
    <path class="cls-1" d="M267,74.4h4.6c2.1,0,3.6.3,4.6.9s1.4,1.5,1.4,2.7-.2,1.6-.6,2.1-1,.9-1.7,1h0c.9.3,1.6.7,2,1.2s.6,1.3.6,2.2c0,1.3-.5,2.3-1.5,3-1,.7-2.3,1.1-4,1.1h-5.5v-14.3ZM270.1,80h1.8c.9,0,1.5-.1,1.8-.4.4-.3.6-.7.6-1.3s-.2-.9-.6-1.2-1.1-.4-2-.4h-1.7v3.2ZM270.1,82.4v3.7h2c.9,0,1.5-.2,1.9-.5.4-.3.6-.8.6-1.5,0-1.2-.9-1.8-2.6-1.8h-1.9Z"/>
    <path class="cls-1" d="M285.8,88.9c-1.8,0-3.2-.5-4.3-1.5-1-1-1.5-2.3-1.5-4.1s.5-3.2,1.4-4.2,2.3-1.5,3.9-1.5,2.8.4,3.7,1.3,1.3,2.1,1.3,3.6v1.4h-7.3c0,.8.3,1.5.8,2,.5.5,1.2.7,2,.7s1.3,0,1.9-.2,1.2-.4,1.9-.7v2.3c-.5.3-1.1.5-1.7.6-.6.1-1.4.2-2.2.2ZM285.3,79.7c-.7,0-1.2.2-1.5.6s-.6,1-.6,1.7h4.3c0-.7-.2-1.3-.6-1.7s-.9-.6-1.6-.6Z"/>
    <path class="cls-1" d="M297.7,86.5c.5,0,1.2-.1,1.9-.3v2.2c-.8.3-1.7.5-2.8.5s-2.1-.3-2.7-.9-.8-1.5-.8-2.7v-5.3h-1.5v-1.3l1.7-1,.9-2.3h2v2.3h3.2v2.2h-3.2v5.3c0,.4.1.7.4.9s.6.3,1,.3Z"/>
    <path class="cls-1" d="M309.2,88.7l-.6-1.5h0c-.5.6-1.1,1.1-1.6,1.3s-1.3.4-2.2.4-1.9-.3-2.6-.9c-.6-.6-.9-1.5-.9-2.6s.4-2,1.3-2.6c.8-.5,2.1-.9,3.8-.9h2v-.5c0-1.1-.6-1.7-1.8-1.7s-2,.3-3.2.8l-1-2c1.3-.7,2.7-1,4.3-1s2.7.3,3.5,1,1.2,1.6,1.2,2.9v7.3h-2.2ZM308.2,83.6h-1.2c-.9,0-1.6.2-2,.5s-.7.7-.7,1.3c0,.8.5,1.3,1.5,1.3s1.3-.2,1.7-.6c.4-.4.6-.9.6-1.6v-.9Z"/>
  </g>
</svg>