<?xml version="1.0" standalone="no"?>
<!DOCTYPE svg PUBLIC "-//W3C//DTD SVG 20010904//EN"
 "http://www.w3.org/TR/2001/REC-SVG-20010904/DTD/svg10.dtd">
<svg version="1.0" xmlns="http://www.w3.org/2000/svg"
 width="260.000000pt" height="260.000000pt" viewBox="0 0 260.000000 260.000000"
 preserveAspectRatio="xMidYMid meet">
<metadata>
Created by potrace 1.14, written by Peter Selinger 2001-2017
</metadata>
<g transform="translate(0.000000,260.000000) scale(0.100000,-0.100000)"
fill="#000000" stroke="none">
<path d="M350 2580 c0 -11 75 -241 90 -275 8 -18 19 -52 26 -80 2 -5 13 -38
25 -72 13 -35 20 -65 17 -68 -3 -3 -59 13 -124 36 -65 23 -123 42 -129 44 -5
1 -19 5 -30 9 -19 7 -43 16 -55 19 -3 0 -39 13 -80 29 -41 15 -78 28 -82 28
-5 0 -8 -427 -8 -950 0 -668 3 -950 11 -950 6 0 70 21 142 46 73 25 139 47
147 49 8 2 59 19 112 38 53 19 99 32 102 30 3 -3 0 -17 -6 -32 -5 -14 -37
-105 -69 -201 -33 -96 -64 -184 -69 -195 -4 -11 -13 -35 -19 -52 l-10 -33 955
0 c524 0 954 2 954 4 0 2 -27 82 -61 178 -33 95 -62 178 -63 183 -2 6 -6 17
-9 25 -3 8 -11 33 -18 55 -6 22 -15 45 -20 51 -19 24 7 21 104 -13 192 -67
389 -133 397 -133 4 0 8 427 8 949 l0 949 -27 -8 c-14 -4 -93 -31 -176 -59
-82 -29 -157 -54 -165 -56 -8 -2 -42 -13 -74 -24 -33 -12 -61 -19 -63 -17 -4
3 40 142 64 206 3 8 7 20 9 25 1 6 19 57 39 115 20 58 40 117 45 132 l9 27
-950 0 c-634 1 -949 -3 -949 -9z m1720 -662 c1 -204 1 -997 0 -1223 l0 -174
-237 0 c-131 0 -335 -1 -453 -1 -118 0 -217 0 -220 0 -4 1 -510 -1 -545 -1
-59 -2 -95 6 -96 20 -5 122 -2 1532 3 1533 5 2 354 3 778 3 l770 0 0 -157z"/>
</g>
</svg>
